<svg width="121" height="92" viewBox="0 0 121 92" fill="none" xmlns="http://www.w3.org/2000/svg">
<path d="M114.323 24.4405C114.343 24.1779 114.352 23.9163 114.352 23.6557C114.351 20.8832 113.276 18.2153 111.345 16.1951C109.415 14.175 106.774 12.9545 103.96 12.7821C102.593 9.24047 100.222 6.1585 97.1282 3.90135C94.0347 1.6442 90.3481 0.306478 86.5052 0.0466657C82.6623 -0.213146 78.8243 0.615845 75.4458 2.43542C72.0672 4.255 69.2899 6.9889 67.4427 10.3132C66.8495 10.246 66.2529 10.2118 65.6559 10.2105C63.2667 10.2029 60.9056 10.717 58.7431 11.7158C56.5805 12.7147 54.6704 14.1733 53.1507 15.9863C52.9039 16.2811 52.7506 16.6407 52.7099 17.0204C52.6691 17.4002 52.7428 17.7833 52.9216 18.1222C53.1004 18.4612 53.3765 18.7409 53.7156 18.9268C54.0548 19.1127 54.442 19.1965 54.8291 19.1678C55.0381 19.1526 55.2616 19.1536 55.4724 19.1545C60.4222 19.1647 65.2648 20.5738 69.4234 23.2141C73.5819 25.8544 76.8812 29.6146 78.9284 34.0468C79.1143 34.45 79.4344 34.7789 79.8358 34.9794C80.2372 35.1798 80.6961 35.2398 81.1368 35.1494C84.6046 34.4416 88.2019 34.6594 91.5553 35.7801C94.9088 36.9008 97.8962 38.8836 100.208 41.5229C100.394 41.7368 100.624 41.9085 100.884 42.0263C101.144 42.144 101.427 42.2049 101.713 42.2048H117.464C117.81 42.2049 118.149 42.1158 118.449 41.9466C118.75 41.7773 118.999 41.5338 119.174 41.2401C120.271 39.3924 120.85 37.2912 120.851 35.1514C120.841 32.9541 120.23 30.7999 119.082 28.9152C117.933 27.0304 116.289 25.4848 114.323 24.4405Z" fill="#7CC9F2"/>
<path d="M108.77 52.3823C108.387 46.6779 105.689 41.324 101.226 37.41C96.7629 33.496 90.8695 31.3159 84.745 31.3133C83.6182 31.3133 82.4928 31.386 81.3767 31.5308C78.8374 26.9602 75.0036 23.127 70.2925 20.4482C65.5813 17.7694 60.1732 16.3476 54.6565 16.3374C54.347 16.3374 54.013 16.3393 53.7996 16.3561C47.7228 16.4993 41.8366 18.3654 36.9237 21.7061C32.0107 25.0469 28.3038 29.7041 26.2957 35.0586C22.09 35.1315 18.0827 36.7406 15.1343 39.5405C12.1859 42.3403 10.5316 46.1076 10.5267 50.0332C10.5271 50.6062 10.563 51.1788 10.6345 51.7479C7.60528 53.1427 5.05231 55.2973 3.26178 57.9703C1.47125 60.6432 0.513956 63.7288 0.497236 66.8811C0.490195 69.8472 1.33436 72.7609 2.94203 75.3196C3.1191 75.6003 3.37165 75.833 3.67467 75.9946C3.9777 76.1562 4.32069 76.2411 4.66971 76.241H27.2961C27.7739 76.241 28.236 76.0818 28.5993 75.7921C28.9625 75.5024 29.203 75.1012 29.2775 74.6607C29.8564 71.2499 31.7204 68.1438 34.5341 65.901C37.3479 63.6583 40.9269 62.4261 44.6272 62.4261C48.3276 62.4261 51.9065 63.6583 54.7203 65.901C57.5341 68.1438 59.3981 71.2499 59.977 74.6607C60.0514 75.1012 60.2919 75.5024 60.6552 75.7921C61.0184 76.0818 61.4806 76.241 61.9584 76.241H116.318C116.641 76.2411 116.959 76.1686 117.245 76.0295C117.531 75.8904 117.777 75.6889 117.962 75.442C119.847 72.9343 120.856 69.9444 120.851 66.8811C120.838 63.558 119.645 60.3328 117.459 57.7095C115.273 55.0863 112.218 53.2129 108.77 52.3823Z" fill="#9CD5F2"/>
<path d="M65.4695 75.5875C65.4326 74.9463 65.3606 74.3073 65.2537 73.673C64.5345 69.4545 62.2174 65.6128 58.7192 62.8391C55.221 60.0653 50.7715 58.5417 46.1711 58.5422C41.5708 58.5428 37.1216 60.0675 33.6242 62.8421C30.1268 65.6167 27.8108 69.4589 27.0928 73.6776C26.9867 74.3105 26.915 74.9479 26.878 75.5875C23.8235 76.6118 21.1832 78.4853 19.3168 80.9528C17.4504 83.4203 16.4486 86.362 16.4477 89.3771C16.4477 89.8651 16.6565 90.333 17.0282 90.6781C17.3998 91.0231 17.9039 91.2169 18.4295 91.2169H73.918C74.4436 91.2169 74.9476 91.0231 75.3193 90.6781C75.6909 90.333 75.8997 89.8651 75.8997 89.3771C75.8989 86.362 74.897 83.4203 73.0306 80.9528C71.1642 78.4853 68.524 76.6118 65.4695 75.5875Z" fill="#B2EBF2"/>
</svg>
