<svg width="132" height="113" viewBox="0 0 132 113" fill="none" xmlns="http://www.w3.org/2000/svg">
<path d="M74.3921 5.38897C74.3921 5.38897 74.3921 8.2016e-05 80.1317 8.2016e-05C85.8713 8.2016e-05 85.8713 5.38897 85.8713 5.38897V10.7779C85.8713 10.7779 85.8713 16.1667 80.1317 16.1667C74.3921 16.1667 74.3921 10.7779 74.3921 10.7779V5.38897Z" fill="#FFAC33"/>
<path d="M126.048 43.1111C126.048 43.1111 131.788 43.1111 131.788 48.5C131.788 53.8889 126.048 53.8889 126.048 53.8889H120.309C120.309 53.8889 114.569 53.8889 114.569 48.5C114.569 43.1111 120.309 43.1111 120.309 43.1111H126.048Z" fill="#FFAC33"/>
<path d="M39.9545 43.1111C39.9545 43.1111 45.6941 43.1111 45.6941 48.5C45.6941 53.8889 39.9545 53.8889 39.9545 53.8889H34.2149C34.2149 53.8889 28.4753 53.8889 28.4753 48.5C28.4753 43.1111 34.2149 43.1111 34.2149 43.1111H39.9545Z" fill="#FFAC33"/>
<path d="M54.6507 19.6534C54.6507 19.6534 58.7086 23.4633 54.6507 27.2732C50.5928 31.0832 46.5349 27.2732 46.5349 27.2732L42.4742 23.4633C42.4742 23.4633 38.4163 19.6534 42.4742 15.8407C46.5349 12.0308 50.5928 15.8407 50.5928 15.8407L54.6507 19.6534Z" fill="#FFAC33"/>
<path d="M114.916 76.2339C114.916 76.2339 118.974 80.0439 114.916 83.8538C110.859 87.6638 106.801 83.8538 106.801 83.8538L102.743 80.0439C102.743 80.0439 98.6849 76.2339 102.743 72.424C106.801 68.614 110.859 72.424 110.859 72.424L114.916 76.2339Z" fill="#FFAC33"/>
<path d="M113.731 27.2703C113.731 27.2703 109.673 31.0803 105.615 27.2703C101.558 23.4604 105.615 19.6504 105.615 19.6504L109.673 15.8405C109.673 15.8405 113.731 12.0305 117.789 15.8405C121.847 19.6504 117.789 23.4604 117.789 23.4604L113.731 27.2703Z" fill="#FFAC33"/>
<path d="M53.4655 83.8538C53.4655 83.8538 49.4076 87.6638 45.3497 83.8538C41.2918 80.0439 45.3497 76.2339 45.3497 76.2339L49.4076 72.424C49.4076 72.424 53.4655 68.614 57.5234 72.424C61.5813 76.2339 57.5234 80.0439 57.5234 80.0439L53.4655 83.8538Z" fill="#FFAC33"/>
<path d="M74.3921 86.2222C74.3921 86.2222 74.3921 80.8333 80.1317 80.8333C85.8713 80.8333 85.8713 86.2222 85.8713 86.2222V91.6111C85.8713 91.6111 85.8713 97 80.1317 97C74.3921 97 74.3921 91.6111 74.3921 91.6111V86.2222Z" fill="#FFAC33"/>
<path d="M108.83 48.4999C108.83 33.6185 95.9787 21.5554 80.1317 21.5554C64.2818 21.5554 51.4337 33.6185 51.4337 48.4999C51.4337 63.3786 64.2818 75.4443 80.1317 75.4443C95.9787 75.4443 108.83 63.3786 108.83 48.4999Z" fill="#FFAC33"/>
<path d="M93.3637 61.531C93.3796 61.3318 93.3876 61.1335 93.3877 60.9359C93.3869 58.8338 92.4962 56.8109 90.897 55.2792C89.2978 53.7476 87.1103 52.8222 84.7798 52.6915C83.6473 50.0062 81.6836 47.6694 79.1212 45.958C76.5589 44.2466 73.5054 43.2324 70.3224 43.0354C67.1394 42.8384 63.9604 43.4669 61.1621 44.8466C58.3637 46.2262 56.0633 48.299 54.5333 50.8196C54.042 50.7686 53.5478 50.7426 53.0533 50.7417C51.0744 50.7359 49.1187 51.1257 47.3275 51.883C45.5363 52.6404 43.9542 53.7463 42.6955 55.121C42.4911 55.3445 42.3641 55.6171 42.3304 55.905C42.2966 56.1929 42.3576 56.4834 42.5057 56.7404C42.6538 56.9974 42.8825 57.2095 43.1634 57.3505C43.4443 57.4914 43.765 57.5549 44.0857 57.5332C44.2588 57.5216 44.4439 57.5224 44.6185 57.5231C48.7184 57.5308 52.7294 58.5992 56.1738 60.6011C59.6183 62.603 62.351 65.454 64.0466 68.8145C64.2007 69.1203 64.4657 69.3696 64.7982 69.5216C65.1307 69.6736 65.5108 69.719 65.8758 69.6506C68.7482 69.1139 71.7277 69.279 74.5053 70.1287C77.2829 70.9785 79.7573 72.4818 81.6718 74.4829C81.8258 74.6451 82.0171 74.7754 82.2324 74.8646C82.4477 74.9539 82.6819 75.0001 82.9189 75H95.9647C96.2512 75 96.5327 74.9325 96.7812 74.8042C97.0298 74.6759 97.2366 74.4912 97.3813 74.2686C98.2902 72.8676 98.7697 71.2745 98.7706 69.652C98.7625 67.986 98.2561 66.3527 97.3047 64.9237C96.3533 63.4947 94.992 62.3227 93.3637 61.531Z" fill="#7CC9F2"/>
<path d="M88.9344 84.4841C88.6225 79.8179 86.4262 75.4386 82.7925 72.237C79.1588 69.0354 74.3607 67.2521 69.3744 67.25C68.457 67.25 67.5407 67.3094 66.632 67.4279C64.5646 63.6893 61.4433 60.5538 57.6077 58.3626C53.7721 56.1713 49.369 55.0083 44.8775 55C44.6255 55 44.3536 55.0015 44.1799 55.0153C39.2324 55.1325 34.4401 56.6589 30.4402 59.3915C26.4403 62.1242 23.4222 65.9337 21.7873 70.3136C18.3632 70.3732 15.1006 71.6894 12.7001 73.9797C10.2997 76.2699 8.95283 79.3514 8.94885 82.5625C8.94911 83.0312 8.97839 83.4996 9.03655 83.9651C6.57032 85.106 4.49179 86.8685 3.03402 89.0549C1.57624 91.2413 0.796852 93.7653 0.783239 96.3437C0.777506 98.77 1.46479 101.153 2.77369 103.246C2.91785 103.476 3.12347 103.666 3.37018 103.798C3.61689 103.931 3.89614 104 4.1803 104H22.6017C22.9908 104 23.367 103.87 23.6628 103.633C23.9585 103.396 24.1543 103.068 24.2149 102.707C24.6863 99.9173 26.2038 97.3766 28.4947 95.5421C30.7856 93.7076 33.6994 92.6997 36.7121 92.6997C39.7248 92.6997 42.6386 93.7076 44.9295 95.5421C47.2203 97.3766 48.7379 99.9173 49.2092 102.707C49.2698 103.068 49.4656 103.396 49.7614 103.633C50.0571 103.87 50.4334 104 50.8224 104H95.08C95.3427 104 95.6016 103.941 95.8345 103.827C96.0675 103.713 96.2677 103.548 96.4182 103.346C97.953 101.295 98.7746 98.8495 98.7706 96.3437C98.7597 93.6256 97.7886 90.9874 96.0089 88.8416C94.2293 86.6958 91.7415 85.1635 88.9344 84.4841Z" fill="#9CD5F2"/>
<path d="M58.4843 97.6933C58.4473 97.0654 58.375 96.4396 58.2678 95.8183C57.5463 91.687 55.2217 87.9246 51.7122 85.2081C48.2027 82.4917 43.7387 80.9995 39.1235 81C34.5082 81.0005 30.0447 82.4938 26.536 85.2111C23.0272 87.9284 20.7037 91.6913 19.9834 95.8228C19.8769 96.4426 19.805 97.0669 19.7679 97.6933C16.7035 98.6965 14.0547 100.531 12.1822 102.948C10.3098 105.364 9.30471 108.245 9.30384 111.198C9.30384 111.676 9.51331 112.134 9.88616 112.472C10.259 112.81 10.7647 113 11.292 113H66.9602C67.4875 113 67.9932 112.81 68.366 112.472C68.7389 112.134 68.9483 111.676 68.9483 111.198C68.9475 108.245 67.9424 105.364 66.0699 102.948C64.1975 100.531 61.5487 98.6965 58.4843 97.6933Z" fill="#B2EBF2"/>
</svg>
