<svg width="186" height="73" viewBox="0 0 186 73" fill="none" xmlns="http://www.w3.org/2000/svg">
<path d="M129.771 43.3235C129.314 36.4672 126.091 30.0322 120.759 25.3278C115.427 20.6234 108.386 18.0031 101.069 18C99.723 18 98.3784 18.0873 97.0451 18.2614C94.0114 12.7679 89.4312 8.16065 83.8029 4.9409C78.1745 1.72115 71.7135 0.0122143 65.1227 0C64.753 0 64.354 0.00225052 64.099 0.0225005C56.8391 0.194644 49.8069 2.4375 43.9375 6.45286C38.0681 10.4682 33.6394 16.0659 31.2404 22.5016C26.2159 22.5892 21.4283 24.5233 17.9059 27.8885C14.3835 31.2537 12.4072 35.7817 12.4013 40.5C12.4017 41.1888 12.4447 41.8769 12.53 42.561C8.91109 44.2374 5.86108 46.8271 3.72195 50.0398C1.58282 53.2525 0.439156 56.9612 0.419181 60.75C0.410769 64.3151 1.41929 67.8172 3.33995 70.8925C3.5515 71.2299 3.85321 71.5095 4.21524 71.7038C4.57726 71.898 4.98703 72.0001 5.40399 72H32.4355C33.0063 72 33.5584 71.8087 33.9924 71.4604C34.4264 71.1122 34.7137 70.63 34.8027 70.1006C35.4943 66.001 37.7211 62.2677 41.0827 59.572C5.40399 75.6062 49.2523 71.7458 53.6731 71.7458C58.0939 71.7458 106.395 75.1062 65.199 59.572C68.5606 62.2677 70.7874 66.001 71.479 70.1006C71.568 70.63 71.8553 71.1122 72.2893 71.4604C72.7232 71.8087 73.2754 72 73.8462 72H138.789C139.175 72.0002 139.555 71.9129 139.897 71.7458C140.238 71.5786 140.532 71.3364 140.753 71.0397C143.005 68.0256 144.211 64.4319 144.205 60.75C144.189 56.7559 142.764 52.8794 140.152 49.7264C137.541 46.5735 133.89 44.3218 129.771 43.3235Z" fill="#D7D7D7"/>
<path d="M174.303 34.2248C173.94 28.8084 171.386 23.7249 167.16 20.0085C162.934 16.2921 157.353 14.2221 151.554 14.2197C150.487 14.2196 149.421 14.2886 148.365 14.4262C145.96 10.0864 142.33 6.44676 137.869 3.90322C133.408 1.35968 128.287 0.00964906 123.063 0C122.77 0 122.454 0.00177787 122.252 0.017775C116.498 0.153765 110.924 1.92558 106.272 5.09764C101.62 8.2697 98.1096 12.6917 96.2082 17.7758C92.2258 17.845 88.4312 19.3729 85.6394 22.0314C82.8476 24.6899 81.2811 28.2669 81.2765 31.9943C81.2768 32.5384 81.3108 33.082 81.3785 33.6224C78.5101 34.9467 76.0927 36.9926 74.3973 39.5305C72.7018 42.0685 71.7954 44.9983 71.7795 47.9914C71.7729 50.8077 72.5722 53.5743 74.0945 56.0038C74.2622 56.2703 74.5013 56.4912 74.7882 56.6447C75.0752 56.7981 75.4 56.8788 75.7304 56.8787H97.1554C97.6079 56.8787 98.0455 56.7275 98.3894 56.4524C98.7334 56.1774 98.9611 55.7964 99.0316 55.3782C99.5798 52.1396 101.345 49.1903 104.009 47.0608C75.7304 59.7275 110.484 56.6778 113.988 56.6778C117.492 56.6778 155.775 59.3325 123.123 47.0608C125.788 49.1903 127.553 52.1396 128.101 55.3782C128.172 55.7964 128.399 56.1774 128.743 56.4524C129.087 56.7275 129.525 56.8787 129.977 56.8787H181.451C181.756 56.8788 182.057 56.8099 182.328 56.6778C182.599 56.5458 182.832 56.3544 183.007 56.1201C184.792 53.739 185.748 50.9 185.743 47.9914C185.73 44.8361 184.601 41.7737 182.531 39.283C180.461 36.7922 177.568 35.0134 174.303 34.2248Z" fill="#D7D7D7"/>
</svg>
