<svg width="102" height="98" viewBox="0 0 102 98" fill="none" xmlns="http://www.w3.org/2000/svg">
<path d="M18.6416 68.1063C18.4836 68.0403 18.3134 68.0043 18.1406 68.0004C17.9679 67.9964 17.796 68.0246 17.6348 68.0832C17.4737 68.1419 17.3263 68.2299 17.2013 68.3423C17.0762 68.4546 16.9759 68.5891 16.9061 68.738L10.4243 82.4861C10.283 82.7867 10.2743 83.1278 10.4001 83.4344C10.5258 83.741 10.7757 83.988 11.0948 84.121C11.4138 84.2541 11.7759 84.2623 12.1014 84.1438C12.4269 84.0253 12.6891 83.7899 12.8303 83.4894L19.3253 69.7288C19.4618 69.4281 19.4665 69.0888 19.3384 68.7848C19.2104 68.4808 18.9599 68.2369 18.6416 68.1063ZM28.3841 68.1063C28.2261 68.0403 28.0559 68.0043 27.8831 68.0004C27.7104 67.9964 27.5385 68.0246 27.3773 68.0832C27.2161 68.1419 27.0688 68.2299 26.9438 68.3423C26.8187 68.4546 26.7184 68.5891 26.6486 68.738L13.698 96.259C13.6281 96.4079 13.59 96.5682 13.5858 96.7309C13.5817 96.8936 13.6116 97.0555 13.6739 97.2073C13.7361 97.3591 13.8295 97.4979 13.9487 97.6157C14.0679 97.7335 14.2106 97.8281 14.3686 97.8939C14.5266 97.9598 14.6968 97.9957 14.8695 97.9996C15.0422 98.0035 15.214 97.9754 15.3752 97.9167C15.5364 97.8581 15.6837 97.7701 15.8087 97.6578C15.9338 97.5455 16.0341 97.4111 16.1041 97.2623L29.094 69.7412C29.1629 69.5901 29.1991 69.4276 29.2006 69.2632C29.2021 69.0988 29.1689 68.9358 29.1028 68.7836C29.0367 68.6314 28.9391 68.4931 28.8157 68.3768C28.6923 68.2606 28.5456 68.1686 28.3841 68.1063ZM47.8821 68.1063C47.7242 68.0403 47.5539 68.0043 47.3812 68.0004C47.2085 67.9964 47.0366 68.0246 46.8754 68.0832C46.7142 68.1419 46.5669 68.2299 46.4418 68.3423C46.3168 68.4546 46.2165 68.5891 46.1466 68.738L33.1435 96.259C33.0736 96.4079 33.0355 96.5682 33.0313 96.7309C33.0272 96.8936 33.0571 97.0555 33.1194 97.2073C33.1816 97.3591 33.275 97.4979 33.3942 97.6157C33.5134 97.7335 33.6561 97.8281 33.8141 97.8939C33.972 97.9598 34.1423 97.9957 34.315 97.9996C34.4877 98.0035 34.6595 97.9754 34.8207 97.9167C34.9818 97.8581 35.1292 97.7701 35.2542 97.6578C35.3793 97.5455 35.4796 97.4111 35.5496 97.2623L48.5395 69.7412C48.6818 69.4422 48.6925 69.1023 48.5693 68.7958C48.4461 68.4894 48.199 68.2415 47.8821 68.1063ZM38.1265 68.1063C37.9686 68.0403 37.7983 68.0043 37.6256 68.0004C37.4528 67.9964 37.281 68.0246 37.1198 68.0832C36.9586 68.1419 36.8113 68.2299 36.6862 68.3423C36.5612 68.4546 36.4609 68.5891 36.391 68.738L29.896 82.4861C29.7548 82.7867 29.7461 83.1278 29.8719 83.4344C29.9976 83.741 30.2475 83.988 30.5666 84.121C30.8856 84.2541 31.2477 84.2623 31.5732 84.1438C31.8987 84.0253 32.1609 83.7899 32.3021 83.4894L38.7971 69.7288C38.9344 69.4297 38.941 69.0916 38.8155 68.7878C38.69 68.4841 38.4424 68.2392 38.1265 68.1063Z" fill="#B3E5FC"/>
<path d="M55.1987 51.6712C55.0378 51.6273 54.8662 51.6078 54.6935 51.6137C54.5209 51.6196 54.3506 51.6509 54.1924 51.7057C54.0342 51.7605 53.8913 51.8378 53.7717 51.9332C53.6521 52.0285 53.5583 52.14 53.4956 52.2614L47.6704 63.4675C47.5435 63.7124 47.5509 63.9825 47.6909 64.2182C47.8308 64.454 48.092 64.6361 48.4168 64.7246C48.7416 64.813 49.1035 64.8005 49.4229 64.6899C49.7423 64.5792 49.993 64.3794 50.1199 64.1344L55.9576 52.9179C56.0798 52.6731 56.0685 52.4046 55.9263 52.171C55.7842 51.9375 55.5226 51.7578 55.1987 51.6712ZM64.926 51.161C64.7651 51.1171 64.5935 51.0976 64.4208 51.1035C64.2482 51.1094 64.0779 51.1407 63.9197 51.1955C63.7615 51.2503 63.6186 51.3276 63.499 51.4229C63.3794 51.5183 63.2856 51.6298 63.2229 51.7512L51.5868 74.1822C51.524 74.3035 51.4935 74.4322 51.497 74.5611C51.5005 74.6899 51.538 74.8163 51.6073 74.933C51.6766 75.0497 51.7764 75.1545 51.9009 75.2414C52.0255 75.3283 52.1724 75.3955 52.3332 75.4393C52.494 75.4831 52.6657 75.5026 52.8383 75.4966C53.0109 75.4907 53.1812 75.4594 53.3393 75.4046C53.4975 75.3498 53.6404 75.2725 53.76 75.1772C53.8796 75.0819 53.9735 74.9705 54.0363 74.8492L65.7117 52.4161C65.7734 52.293 65.8019 52.1627 65.7957 52.0327C65.7895 51.9026 65.7486 51.7755 65.6755 51.6587C65.6023 51.5419 65.4984 51.4377 65.3697 51.3522C65.241 51.2668 65.0902 51.2018 64.926 51.161ZM84.3937 50.1399C84.2329 50.096 84.0612 50.0765 83.8886 50.0824C83.7159 50.0883 83.5456 50.1196 83.3874 50.1744C83.2293 50.2292 83.0863 50.3065 82.9667 50.4018C82.8472 50.4972 82.7533 50.6087 82.6906 50.7301L71.0021 73.1638C70.9392 73.2851 70.9087 73.4139 70.9122 73.5427C70.9157 73.6715 70.9532 73.7979 71.0225 73.9146C71.0918 74.0314 71.1916 74.1362 71.3162 74.223C71.4407 74.3099 71.5876 74.3772 71.7484 74.421C71.9093 74.4648 72.0809 74.4842 72.2535 74.4783C72.4262 74.4723 72.5964 74.4411 72.7546 74.3863C72.9127 74.3315 73.0557 74.2542 73.1752 74.1589C73.2948 74.0636 73.3887 73.9521 73.4515 73.8308L85.127 51.3977C85.255 51.1539 85.2497 50.8847 85.1122 50.6489C84.9748 50.4132 84.7164 50.2301 84.3937 50.1399ZM74.6533 50.6508C74.4925 50.6069 74.3208 50.5874 74.1481 50.5933C73.9755 50.5992 73.8052 50.6305 73.647 50.6853C73.4888 50.7401 73.3459 50.8174 73.2263 50.9127C73.1067 51.0081 73.0129 51.1196 72.9502 51.241L67.1119 62.4477C66.985 62.6927 66.9924 62.9628 67.1324 63.1985C67.2723 63.4343 67.5334 63.6164 67.8583 63.7048C68.1831 63.7933 68.545 63.7808 68.8644 63.6701C69.1838 63.5595 69.4345 63.3597 69.5614 63.1147L75.3991 51.8981C75.5221 51.6545 75.5128 51.3869 75.3732 51.1534C75.2336 50.9199 74.9749 50.7393 74.6533 50.6508Z" fill="#B3E5FC"/>
<path d="M91.7517 30.6875C91.4296 25.8309 89.1617 21.2728 85.4095 17.9405C81.6573 14.6082 76.7027 12.7522 71.5538 12.75C70.6065 12.75 69.6603 12.8119 68.722 12.9352C66.5872 9.04393 63.3641 5.78046 59.4034 3.4998C55.4427 1.21915 50.8961 0.00865179 46.2581 0C45.9979 0 45.7171 0.00159412 45.5377 0.0159379C40.4289 0.137873 35.4803 1.72656 31.35 4.57078C27.2196 7.41499 24.1032 11.38 22.415 15.9386C18.8792 16.0007 15.5102 17.3706 13.0315 19.7544C10.5527 22.1381 9.16198 25.3454 9.15787 28.6875C9.15814 29.1754 9.18838 29.6628 9.24843 30.1474C6.70178 31.3348 4.55547 33.1692 3.05016 35.4449C1.54485 37.7206 0.740046 40.3475 0.725989 43.0313C0.72007 45.5565 1.42977 48.0372 2.78134 50.2156C2.93021 50.4545 3.14253 50.6526 3.39729 50.7902C3.65204 50.9278 3.9404 51.0001 4.23382 51H23.256C23.6577 51 24.0462 50.8645 24.3516 50.6178C24.657 50.3712 24.8592 50.0296 24.9218 49.6546C25.4085 46.7507 26.9755 44.1063 29.3411 42.1969C31.7067 40.2875 34.7155 39.2384 37.8264 39.2384C40.9373 39.2384 43.9462 40.2875 46.3118 42.1969C48.6773 44.1063 50.2444 46.7507 50.7311 49.6546C50.7937 50.0296 50.9959 50.3712 51.3012 50.6178C51.6066 50.8645 51.9952 51 52.3969 51H98.0977C98.3689 51.0001 98.6362 50.9383 98.8768 50.8199C99.1173 50.7015 99.3241 50.5299 99.4795 50.3198C101.064 48.1848 101.913 45.6392 101.909 43.0313C101.897 40.2021 100.895 37.4562 99.0568 35.2229C97.2192 32.9895 94.6502 31.3946 91.7517 30.6875Z" fill="#9CD5F2"/>
<path d="M54.7834 51.1283C54.7523 50.5592 54.6917 49.9921 54.6016 49.4291C53.9961 45.6851 52.0451 42.2754 49.0996 39.8136C46.1541 37.3518 42.4076 35.9995 38.5341 36C34.6606 36.0005 30.9144 37.3538 27.9696 39.8163C25.0248 42.2788 23.0746 45.689 22.4701 49.4332C22.3807 49.9949 22.3204 50.5606 22.2892 51.1283C19.7173 52.0374 17.4942 53.7002 15.9227 55.8902C14.3512 58.0802 13.5076 60.691 13.5069 63.3671C13.5069 63.8002 13.6827 64.2155 13.9956 64.5217C14.3086 64.828 14.733 65 15.1755 65H61.897C62.3396 65 62.764 64.828 63.0769 64.5217C63.3899 64.2155 63.5657 63.8002 63.5657 63.3671C63.5649 60.691 62.7214 58.0802 61.1499 55.8902C59.5784 53.7002 57.3553 52.0374 54.7834 51.1283Z" fill="#B2EBF2"/>
</svg>
