<svg width="18" height="18" viewBox="0 0 18 18" fill="none" xmlns="http://www.w3.org/2000/svg">
<path d="M16.9895 15.8837L11.7723 10.6665C12.5819 9.61986 13.0199 8.34018 13.0199 6.99419C13.0199 5.38303 12.3911 3.87232 11.254 2.73326C10.117 1.59419 8.60225 0.967407 6.99309 0.967407C5.38394 0.967407 3.86921 1.5962 2.73216 2.73326C1.59309 3.87031 0.966309 5.38303 0.966309 6.99419C0.966309 8.60334 1.5951 10.1181 2.73216 11.2551C3.86921 12.3942 5.38193 13.021 6.99309 13.021C8.33908 13.021 9.61676 12.583 10.6634 11.7754L15.8806 16.9906C15.8959 17.0059 15.9141 17.0181 15.934 17.0264C15.954 17.0346 15.9755 17.0389 15.9971 17.0389C16.0188 17.0389 16.0402 17.0346 16.0602 17.0264C16.0802 17.0181 16.0983 17.0059 16.1136 16.9906L16.9895 16.1167C17.0048 16.1014 17.017 16.0833 17.0253 16.0633C17.0335 16.0433 17.0378 16.0219 17.0378 16.0002C17.0378 15.9786 17.0335 15.9571 17.0253 15.9372C17.017 15.9172 17.0048 15.899 16.9895 15.8837ZM10.1752 10.1763C9.32345 11.0261 8.19443 11.4942 6.99309 11.4942C5.79176 11.4942 4.66274 11.0261 3.81095 10.1763C2.96117 9.32455 2.49309 8.19553 2.49309 6.99419C2.49309 5.79285 2.96117 4.66183 3.81095 3.81205C4.66274 2.96227 5.79176 2.49419 6.99309 2.49419C8.19443 2.49419 9.32546 2.96026 10.1752 3.81205C11.025 4.66384 11.4931 5.79285 11.4931 6.99419C11.4931 8.19553 11.025 9.32656 10.1752 10.1763Z" fill="black" fill-opacity="0.45"/>
</svg>
