<svg width="132" height="123" viewBox="0 0 132 123" fill="none" xmlns="http://www.w3.org/2000/svg">
<path d="M58.842 6.83333C58.842 6.83333 58.842 0 66.1201 0C73.3981 0 73.3981 6.83333 73.3981 6.83333V13.6667C73.3981 13.6667 73.3981 20.5 66.1201 20.5C58.842 20.5 58.842 13.6667 58.842 13.6667V6.83333Z" fill="#FFAC33"/>
<path d="M124.344 54.6666C124.344 54.6666 131.623 54.6666 131.623 61.4999C131.623 68.3333 124.344 68.3333 124.344 68.3333H117.066C117.066 68.3333 109.788 68.3333 109.788 61.4999C109.788 54.6666 117.066 54.6666 117.066 54.6666H124.344Z" fill="#FFAC33"/>
<path d="M15.1738 54.6666C15.1738 54.6666 22.4519 54.6666 22.4519 61.4999C22.4519 68.3333 15.1738 68.3333 15.1738 68.3333H7.89578C7.89578 68.3333 0.617737 68.3333 0.617737 61.4999C0.617737 54.6666 7.89578 54.6666 7.89578 54.6666H15.1738Z" fill="#FFAC33"/>
<path d="M33.8092 24.9214C33.8092 24.9214 38.9548 29.7526 33.8092 34.5838C28.6636 39.4149 23.5181 34.5838 23.5181 34.5838L18.3688 29.7526C18.3688 29.7526 13.2233 24.9214 18.3688 20.0869C23.5181 15.2557 28.6636 20.0869 28.6636 20.0869L33.8092 24.9214Z" fill="#FFAC33"/>
<path d="M110.229 96.6675C110.229 96.6675 115.374 101.499 110.229 106.33C105.083 111.161 99.9376 106.33 99.9376 106.33L94.792 101.499C94.792 101.499 89.6464 96.6675 94.792 91.8364C99.9376 87.0052 105.083 91.8364 105.083 91.8364L110.229 96.6675Z" fill="#FFAC33"/>
<path d="M108.726 34.5799C108.726 34.5799 103.58 39.411 98.4346 34.5799C93.289 29.7487 98.4346 24.9175 98.4346 24.9175L103.58 20.0864C103.58 20.0864 108.726 15.2552 113.871 20.0864C119.017 24.9175 113.871 29.7487 113.871 29.7487L108.726 34.5799Z" fill="#FFAC33"/>
<path d="M32.3063 106.33C32.3063 106.33 27.1607 111.161 22.0151 106.33C16.8696 101.499 22.0151 96.6675 22.0151 96.6675L27.1607 91.8364C27.1607 91.8364 32.3063 87.0052 37.4519 91.8364C42.5975 96.6675 37.4519 101.499 37.4519 101.499L32.3063 106.33Z" fill="#FFAC33"/>
<path d="M58.842 109.333C58.842 109.333 58.842 102.5 66.1201 102.5C73.3981 102.5 73.3981 109.333 73.3981 109.333V116.167C73.3981 116.167 73.3981 123 66.1201 123C58.842 123 58.842 116.167 58.842 116.167V109.333Z" fill="#FFAC33"/>
<path d="M102.51 61.5001C102.51 42.6298 86.2148 27.3334 66.1201 27.3334C46.0218 27.3334 29.7299 42.6298 29.7299 61.5001C29.7299 80.3669 46.0218 95.6667 66.1201 95.6667C86.2148 95.6667 102.51 80.3669 102.51 61.5001Z" fill="#FFAC33"/>
</svg>
