<svg width="17" height="15" viewBox="0 0 17 15" fill="none" xmlns="http://www.w3.org/2000/svg">
<path d="M1.40614 14.8179C0.557461 14.8179 0.183342 14.2391 0.574047 13.5318L7.7657 0.530457C8.1564 -0.17682 8.79683 -0.17682 9.188 0.530457L16.3796 13.5318C16.7713 14.2391 16.3967 14.8179 15.5476 14.8179H1.40614Z" fill="#FFCC4D"/>
<path d="M7.44926 4.28884C7.44926 3.72561 7.89233 3.37695 8.47834 3.37695C9.05051 3.37695 9.50788 3.73902 9.50788 4.28884V9.45304C9.50788 10.0029 9.05051 10.3649 8.47834 10.3649C7.89233 10.3649 7.44926 10.0158 7.44926 9.45304V4.28884ZM7.36304 12.2021C7.36304 11.6255 7.86375 11.1561 8.47834 11.1561C9.09293 11.1561 9.59364 11.6255 9.59364 12.2021C9.59364 12.7792 9.09293 13.2485 8.47834 13.2485C7.86375 13.2485 7.36304 12.7792 7.36304 12.2021Z" fill="#231F20"/>
</svg>
